<svg width="31" height="30" viewBox="0 0 31 30" fill="none" xmlns="http://www.w3.org/2000/svg">
<path d="M19.4816 29.214C19.2214 28.9454 21.2159 27.1857 19.1347 28.4618C19.9874 27.1723 19.7851 28.4484 20.2331 26.7962C20.7534 27.4409 20.71 26.5006 21.3893 25.8827C21.4182 25.3992 21.5483 27.1185 21.6205 25.7753C22.4587 25.6141 22.3431 26.0977 25.2625 25.5604C25.6816 25.6813 26.1296 25.5335 26.2019 26.2992C26.4186 25.7081 27.8783 25.829 25.7249 24.7544C27.0401 23.841 27.1268 26.9574 27.2858 23.25C26.751 23.3306 29.5837 21.759 27.517 21.3157C27.835 20.6038 31.3758 19.7844 27.7483 19.7575C24.3664 17.5949 31.5492 18.3874 30.4075 20.2411C30.5809 20.147 30.6531 20.4023 30.8699 19.8112C31.7371 18.468 27.9072 19.0321 30.6965 17.7158C29.5837 17.8232 29.9594 18.6963 27.9795 18.4142C26.5632 16.9501 27.5026 18.6963 28.5576 17.3934C28.5142 17.0173 28.0228 18.1993 27.7483 17.6083C27.069 16.6143 29.6415 16.4934 28.9044 16.3725C25.3203 17.4202 28.2396 15.7546 26.0718 15.5665C26.5343 15.768 25.3636 15.1367 25.2047 13.5248C24.4098 13.2158 23.904 14.2099 24.511 11.6442C24.5977 10.6771 27.1413 12.3427 26.9389 12.0741C26.7366 11.8592 26.4331 11.201 26.1296 11.5905C25.9995 11.6442 26.2308 10.8786 25.6093 9.28011C24.1786 9.05176 25.0312 8.19207 25.3781 7.82939C26.3608 6.92941 24.8434 7.48015 24.3375 6.21749C24.1207 6.16376 23.5716 7.15777 22.6033 5.94884C22.6755 5.82794 22.6033 5.02199 20.3487 3.58471C20.8979 2.17429 19.4382 3.31605 18.441 2.08026C17.5594 3.128 14.9002 1.50266 14.2788 0.468353C14.6545 0.97879 7.81865 0.18627 12.4867 1.86534C10.4345 6.11003 6.48904 3.1683 5.26061 7.1309C4.58135 6.74136 6.35897 7.58761 4.45128 7.50701C5.34732 8.27267 3.75758 7.34582 4.39347 8.09804C3.32401 9.4816 1.92214 8.80997 1.79207 10.3547C0.939394 10.5428 1.12727 10.9323 1.27179 10.6771C1.61865 10.2473 2.00886 12.1815 1.84988 10.9457C2.80373 10.4622 0.462471 12.3562 1.21399 12.9875C1.35851 13.6054 1.74872 12.5442 2.31235 13.3636C2.16783 14.0755 -0.98275 12.8129 1.44522 14.1696C3.13613 14.2636 0.115618 13.3099 4.74033 14.0621C5.54965 14.1561 4.48019 15.7143 4.16224 14.4382C4.35012 14.183 1.89324 14.4113 2.02331 14.8143C1.90769 14.6666 2.00886 15.2307 1.73427 14.9218C2.44242 14.7606 0.216783 14.7606 1.79207 15.2442C1.6042 15.7546 0.505828 15.0024 0.635897 15.8352C0.144522 15.6471 4.06107 16.3859 1.27179 16.9098C0.375758 17.4605 0.361305 16.7486 0 16.5874C0.101166 17.0307 0.274592 20.7246 1.79207 18.8441C1.99441 18.2396 2.13893 18.4277 2.83263 17.2859C2.67366 18.4277 0.953846 14.371 4.45128 15.2442C6.02657 15.8083 1.86434 16.1038 3.41072 15.9427C4.20559 15.7815 5.78089 16.0635 3.98881 17.0173C4.95711 17.6083 3.20839 19.1262 3.41072 19.0053C3.67086 20.456 2.80373 19.3814 2.19674 20.4023C2.81818 21.0605 0.896037 21.7858 3.06387 23.7873C3.17949 23.2231 4.71142 23.6395 4.04662 23.1425C5.85315 24.3783 4.71142 20.8052 5.49184 22.7127C5.44848 22.9813 5.63636 22.7798 5.72308 22.444C6.18555 22.2963 5.00047 21.6918 5.95431 21.3157C6.12774 21.4366 6.54685 21.2485 6.24336 21.1008C6.79254 20.6575 8.22331 19.6366 7.11049 18.5217C7.02378 18.6695 7.1683 17.0979 8.03543 18.1456C7.99207 18.159 7.5007 17.071 8.44009 17.2859C8.62797 18.3739 11.0126 16.6949 11.4462 18.0919C11.7497 18.1322 12.1688 18.468 12.1399 18.5217C12.2121 17.6083 15.1604 19.1933 13.1226 19.4889C14.4522 19.8515 12.8769 20.55 14.4522 20.0799C15.2182 20.55 12.6312 21.2754 12.9492 22.3903C13.2382 23.5052 12.4289 22.2828 12.4867 23.1962C12.7179 22.5515 12.559 25.3454 11.1571 24.5395C11.8364 25.923 10.3911 24.3246 10.9259 25.238C11.2149 25.2917 11.3883 27.8573 10.1744 25.3454C10.4056 26.635 9.72634 25.238 9.59627 26.2051C12.2844 26.9977 8.17995 26.6215 6.99487 27.1185C7.26946 27.9782 10.3189 28.9857 11.8508 29.3215C13.2238 29.7648 17.5739 30.3827 19.4816 29.214ZM26.4765 25.7216C26.4476 25.7081 26.5343 25.7887 26.4186 25.7753C26.4186 25.7619 26.2597 25.6947 26.4765 25.7216ZM28.6154 19.9724C28.5865 19.9859 28.6876 19.9724 28.6732 20.0799C28.6298 20.0665 28.6009 20.1336 28.6154 19.9724ZM27.8639 19.865C27.8061 19.865 27.8061 19.865 27.8639 19.865C27.8928 19.865 28.0662 19.9993 27.8639 19.865ZM30.6965 20.0799C30.6965 20.1873 30.3641 20.1202 30.5809 20.0262C30.5375 19.9993 30.6676 19.9456 30.6965 20.0799ZM27.517 17.2322C27.5604 17.1382 27.676 17.7023 27.517 17.5008C27.5315 17.5143 27.2424 17.2725 27.517 17.2322ZM27.228 17.0173C27.1413 16.8426 27.676 17.0844 27.2858 17.1247C27.3725 17.165 27.0979 17.0307 27.228 17.0173ZM26.9389 17.8232C26.9389 17.9307 26.9389 17.9307 26.9389 17.8232C26.9389 17.7292 27.2858 17.9575 26.9389 17.8232ZM25.2047 14.0084H25.1469H25.2047ZM26.1296 22.2291C25.9128 22.3634 25.7105 21.947 26.1874 22.2291H26.1296ZM26.7077 23.4649C27.0401 23.8947 25.7538 23.9082 26.5921 23.4112C26.5487 23.3843 26.6788 23.3306 26.7077 23.4649ZM26.7077 17.5008C26.91 17.4605 26.6932 17.3934 26.7655 17.5546C26.7944 17.5949 26.6932 17.7426 26.7077 17.5008ZM26.5921 16.3188C26.5776 16.1441 26.7221 16.0367 26.5921 16.3725V16.3188ZM26.5343 18.4142C26.6788 18.1053 26.8522 18.7904 26.5921 18.6292C26.5198 18.7098 26.3608 18.5217 26.5343 18.4142ZM26.3608 15.8889C26.4042 15.9024 26.4765 15.8486 26.4186 15.9964C26.4476 15.9427 26.3753 15.9964 26.3608 15.8889ZM25.6671 16.265C25.7105 16.2382 25.7394 16.2919 25.8406 16.3188C25.8117 16.3053 25.696 16.48 25.6671 16.265ZM24.9156 13.9009C24.9156 13.9009 24.9156 13.9009 24.9734 13.9546C25.0457 13.9278 24.7566 14.0084 24.9156 13.9009ZM24.6266 14.1158C24.5688 14.1158 24.5688 14.1158 24.6266 14.1158C24.7133 14.1293 24.7711 14.4651 24.6266 14.1158ZM24.5688 15.0292C24.5399 15.0427 24.641 15.0292 24.6266 15.1367C24.5832 15.1233 24.5543 15.1904 24.5688 15.0292ZM24.2219 18.6829C24.3231 16.1173 24.3953 22.0007 26.9389 21.6381C25.9851 23.1559 23.8606 20.8724 24.2219 18.6829ZM25.7827 9.65622C25.8261 9.66965 25.855 9.60249 25.8406 9.76368C25.7972 9.75025 25.7683 9.81741 25.7827 9.65622ZM25.6093 11.1069C25.6093 11.3756 25.6093 11.3756 25.6093 11.1069C25.7538 10.9726 26.0718 11.4025 25.6093 11.1069ZM24.8578 9.22638C24.8578 9.28011 24.8578 9.28011 24.8578 9.22638C24.8434 9.19951 25.0168 9.26668 24.8578 9.22638ZM24.1063 12.6114C24.0918 12.5845 24.1786 12.6651 24.1641 12.5577C24.193 12.5711 24.1352 12.7726 24.1063 12.6114ZM20.58 26.7962C20.6378 26.7424 20.6378 26.7424 20.58 26.7962C20.5366 26.8633 20.4499 26.6081 20.58 26.7962ZM20.6956 19.2739C20.5944 19.153 20.7389 18.1993 20.869 18.9515C20.7967 19.1799 21.0135 19.2605 20.6956 19.2739ZM20.9268 17.8232C20.9268 17.8769 20.9268 17.8769 20.9268 17.8232C20.9124 17.7963 21.0858 17.8635 20.9268 17.8232ZM20.869 17.5008C20.8256 17.5814 20.9702 17.3262 20.9846 17.4471C20.9702 17.4337 20.9846 17.5143 20.869 17.5008ZM21.0424 18.1993C20.9702 18.0247 21.4182 17.8232 21.158 18.3605C21.2014 18.4948 20.4932 18.4142 21.0424 18.1993ZM21.158 17.8232C21.2159 17.8769 21.2159 17.8769 21.158 17.8232C21.1436 17.7426 21.4037 17.662 21.158 17.8232ZM20.9846 26.3126C20.9557 26.4469 20.5366 26.3663 20.9268 26.2589C20.9413 26.2589 21.0135 26.0036 20.9846 26.3126ZM21.0424 19.1127C20.9991 19.0993 20.9702 19.1665 20.9846 19.0053C21.028 19.0187 21.0569 18.9515 21.0424 19.1127ZM21.0424 18.5754C20.9991 18.562 21.2448 18.4545 21.1002 18.6292C21.0713 18.6426 21.158 18.562 21.0424 18.5754ZM21.2159 19.059C21.2737 19.059 21.2737 19.059 21.2159 19.059C21.1002 19.2336 21.0135 18.871 21.2159 19.059ZM21.2737 18.7366C21.2737 18.6829 21.2737 18.6829 21.2737 18.7366C21.3026 18.9515 20.8112 18.7098 21.2737 18.7366ZM21.3315 18.5754C21.3315 18.5217 21.3315 18.5217 21.3315 18.5754C21.3748 18.5889 21.1869 18.5083 21.3315 18.5754ZM21.5627 18.3068C21.6639 18.656 21.0569 18.5486 21.5049 18.1456C21.635 18.1322 21.4471 18.1456 21.5627 18.3068ZM21.5627 17.9844C21.5049 18.1993 21.1291 18.0247 21.3893 17.7695C21.4471 17.7426 21.6639 17.9307 21.5627 17.9844ZM21.5627 17.5008C21.7217 17.9172 20.9846 17.4471 21.5049 17.3934C21.5193 17.4202 21.476 17.4471 21.5627 17.5008ZM21.7939 18.2531C21.7939 18.1993 21.7939 18.1993 21.7939 18.2531C21.8807 18.4008 21.4471 18.2396 21.7939 18.2531ZM22.0252 16.1038C21.9818 16.0904 21.9529 16.1576 21.9674 15.9964C22.0107 16.0098 22.0396 15.9427 22.0252 16.1038ZM21.9096 15.0292C21.9674 15.0292 21.9674 15.0292 21.9096 15.0292C21.8807 15.0695 21.9674 14.7472 21.9096 15.0292ZM22.8923 16.5337C22.82 16.5068 22.8923 16.6143 22.7189 16.5874C22.7622 16.668 22.8923 16.265 22.8923 16.5337ZM23.4704 14.0621C23.586 14.0218 22.6466 15.5934 21.8517 14.4382C22.6466 14.5054 22.531 13.4711 23.4704 14.0621ZM22.8345 8.3667C22.8345 8.42043 22.7189 8.54132 22.6033 8.58162C22.6755 8.58162 22.6033 8.38013 22.8345 8.3667ZM22.7767 7.34582C22.6611 7.43985 22.4443 7.05031 22.8345 7.18463C22.8345 7.23836 22.8634 7.2115 22.7767 7.34582ZM23.5282 12.88C23.6727 13.0009 23.586 12.88 23.6438 12.7726C23.6583 12.7726 23.6294 13.1353 23.5282 12.88ZM23.3548 7.77566C23.3548 7.88312 23.3548 7.88312 23.3548 7.77566C23.427 7.53388 23.5138 7.88312 23.3548 7.77566ZM23.2392 13.2561C23.3692 12.786 24.0485 13.686 23.9329 13.7934C23.1524 13.7129 22.7333 13.6054 23.2392 13.2561ZM22.5455 6.5936C22.5888 6.25778 23.1814 7.11747 23.0657 6.96971C22.8779 6.84882 22.4298 7.48015 22.5455 6.5936ZM21.6205 7.45328C21.7217 7.80253 22.7189 7.03687 22.6611 8.25923C22.3865 8.50102 21.3893 8.16521 21.6205 7.45328ZM20.869 6.70106C21.2737 6.513 21.7506 7.69507 21.158 7.23836C21.2592 7.10404 20.6522 6.88911 20.869 6.70106ZM20.7534 17.8769C20.7967 17.9172 21.158 17.9575 20.8112 18.1993C20.7967 18.159 20.7389 18.065 20.7534 17.8769ZM20.6956 17.8232C20.6667 17.8098 20.6378 17.8501 20.58 17.7695C20.58 17.7561 20.7534 17.5008 20.6956 17.8232ZM20.5221 7.72193C20.4643 7.77566 20.4643 7.77566 20.5221 7.72193C20.5655 7.68164 20.6667 7.89656 20.5221 7.72193ZM20.5221 18.6292C20.4932 18.5889 20.6089 18.5217 20.58 18.6829C20.551 18.6963 20.6378 18.6157 20.5221 18.6292ZM20.4065 19.2202C20.3198 19.0724 20.8112 18.7501 20.58 19.0053C20.551 18.9247 20.5655 19.4083 20.4065 19.2202ZM20.3487 26.7424C20.262 26.7693 20.5944 26.7962 20.4065 26.8499C20.4643 26.8633 20.2042 26.7424 20.3487 26.7424ZM20.1175 3.58471C20.0886 3.59814 20.1897 3.58471 20.1753 3.69217C20.1319 3.67873 20.103 3.7459 20.1175 3.58471ZM20.1175 7.18463C20.103 7.15777 20.1897 7.23836 20.1753 7.1309C20.2042 7.14433 20.1464 7.34582 20.1175 7.18463ZM1.79207 10.5696C1.79207 10.5159 1.79207 10.5159 1.79207 10.5696C1.80653 10.5965 1.6331 10.5293 1.79207 10.5696ZM1.79207 10.4622H1.90769H1.79207ZM2.08112 13.7934C2.03776 13.9412 1.73427 13.7397 2.02331 13.686C1.99441 13.6994 2.09557 13.686 2.08112 13.7934ZM1.38741 17.5546C1.38741 17.6083 1.38741 17.6083 1.38741 17.5546C1.45967 17.4874 1.57529 17.7426 1.38741 17.5546ZM1.61865 18.9515C1.48858 19.0993 1.18508 18.7501 1.56084 18.6292C1.56084 18.5889 1.54639 18.7904 1.61865 18.9515ZM1.61865 18.3605C1.76317 18.9918 -0.0144523 18.2128 1.44522 18.0919C1.37296 18.1322 1.662 18.0247 1.61865 18.3605ZM1.90769 18.4142C1.73427 18.4142 1.73427 18.4142 1.90769 18.4142C1.89324 18.5217 1.6331 18.7232 1.90769 18.4142ZM2.02331 17.6083C1.90769 17.7158 1.662 17.3128 1.90769 17.5008C1.9366 17.5008 2.32681 17.7158 2.02331 17.6083ZM2.25455 17.9844C2.25455 17.8769 2.25455 17.8769 2.25455 17.9844C2.34126 18.0247 1.74872 17.9307 2.25455 17.9844ZM2.42797 17.6083C2.42797 17.7561 2.08112 17.568 2.25455 17.5008C2.32681 17.4874 2.21119 17.6352 2.42797 17.6083ZM2.31235 17.071C2.34126 17.0307 2.24009 17.1919 2.37016 17.1785C2.37016 17.4202 2.08112 17.3128 2.31235 17.071ZM2.19674 21.6381C2.19674 21.5843 2.19674 21.5843 2.19674 21.6381C2.269 21.6515 1.92214 21.5575 2.19674 21.6381ZM9.30723 14.4382C10.3767 14.6397 9.40839 14.8949 8.72914 15.5128C8.09324 15.6337 8.10769 14.9889 7.68858 15.083C8.19441 14.5054 8.48345 14.4382 9.30723 14.4382ZM7.57296 14.277C7.37063 14.1561 8.20886 13.7666 8.15105 14.1696C7.99207 14.3173 7.87646 14.5591 7.57296 14.277ZM7.34172 14.5994C7.05268 14.5994 7.5007 13.9143 7.45734 14.3307C7.38508 14.2367 7.61632 14.586 7.34172 14.5994ZM7.39953 14.9218C7.42844 15.0964 6.92261 15.1098 7.1683 14.9218C7.13939 14.8412 7.21166 14.8546 7.39953 14.9218ZM7.45734 13.0412C7.18275 13.0412 7.31282 12.7188 7.74639 12.9338C7.68858 12.9875 7.73193 12.9338 7.45734 13.0412ZM7.51515 11.698C7.63077 11.698 7.63077 11.698 7.51515 11.698C7.48625 11.6577 7.68858 11.3487 7.51515 11.698ZM7.74639 13.3636C7.77529 13.3636 7.55851 13.7934 7.57296 13.4711C7.60187 13.4442 7.51515 13.3367 7.74639 13.3636ZM8.84476 14.0084C8.93147 13.9949 9.1338 13.8337 9.1338 14.0084C9.20606 14.0218 8.98928 14.1696 8.84476 14.0084ZM8.72914 13.2024C8.59907 14.2367 7.00932 13.6726 8.26667 13.3099C8.58462 13.5114 8.31002 13.095 8.72914 13.2024ZM8.20886 11.9666C8.25221 11.7786 8.1655 12.9606 8.03543 12.289C7.81865 12.5979 7.5296 11.7651 8.20886 11.9666ZM7.97762 13.3636C7.97762 13.3636 7.97762 13.3636 7.91981 13.3636C7.93427 13.3502 7.89091 13.2561 7.97762 13.3636ZM8.44009 12.2353C8.39674 11.9263 8.78695 12.4099 8.4979 12.6114C8.33893 12.6382 8.19441 12.5308 8.44009 12.2353ZM8.38228 11.9129C8.38228 11.8054 8.38228 11.8054 8.38228 11.9129C8.48345 11.9801 7.76084 11.8054 8.38228 11.9129ZM7.51515 10.3547C7.51515 10.4084 7.51515 10.4084 7.51515 10.3547C7.4718 10.3547 7.67413 10.5293 7.51515 10.3547ZM7.45734 10.4622C7.73193 10.7443 7.90536 9.29354 8.15105 11.3756C7.77529 11.7651 7.65967 10.9995 7.45734 10.4622ZM7.1683 10.6771C7.09604 10.2876 7.74639 11.0801 7.22611 10.8383C7.25501 10.8383 7.1683 10.8114 7.1683 10.6771ZM7.1683 10.9457C8.1366 12.0069 5.54965 11.2681 7.22611 12.3965C5.13054 13.0815 6.1711 10.5025 7.1683 10.9457ZM6.82145 13.3636C6.73473 13.2158 7.05268 13.5114 6.87925 13.5248C6.87925 13.4711 6.90816 13.4979 6.82145 13.3636ZM6.87925 13.0412C6.8359 13.189 5.8965 13.2024 6.64802 12.88C6.48904 13.0412 7.21165 12.7323 6.87925 13.0412ZM6.82145 13.7397C6.82145 13.9949 6.38788 13.8606 5.95431 13.8472C5.18834 13.5382 6.63357 12.786 6.82145 13.7397ZM6.30117 14.3307C6.33007 14.4516 5.88205 14.3039 6.24336 14.277C6.27226 14.2636 6.18555 14.3442 6.30117 14.3307ZM5.37622 14.4382C5.31842 14.183 5.92541 13.6323 6.01212 14.3307C5.92541 14.4248 5.63636 14.586 5.37622 14.4382ZM5.37622 14.0621C5.31842 14.0621 5.31842 14.0621 5.37622 14.0621C5.40513 14.0755 5.28951 14.2905 5.37622 14.0621ZM5.31841 13.7397C5.37622 13.7934 5.37622 13.7934 5.31841 13.7397C5.27506 13.7129 5.52075 13.78 5.31841 13.7397ZM5.95431 14.0621C5.8965 13.9815 5.93986 13.7666 6.06993 14.0621C5.99767 14.0084 6.05548 14.183 5.95431 14.0621ZM6.18555 12.7188C6.33007 12.8263 5.66527 12.9203 6.01212 12.6114C6.02657 12.598 6.08438 12.7054 6.18555 12.7188ZM6.76364 5.30407C6.76364 5.3578 6.76364 5.3578 6.76364 5.30407C6.74918 5.27721 6.92261 5.34437 6.76364 5.30407ZM5.02937 8.904C4.8993 7.96372 7.38508 8.93086 6.82145 9.92487C5.66527 10.4219 6.15664 11.5502 5.02937 8.904ZM1.73427 11.6442C1.71981 11.5368 1.95105 11.4696 1.79207 11.698C1.80653 11.6711 1.71981 11.7517 1.73427 11.6442ZM1.67646 12.289C1.67646 12.3427 1.67646 12.3427 1.67646 12.289C1.64755 12.1009 2.06667 12.3293 1.67646 12.289ZM1.90769 12.7726C1.90769 12.7188 1.90769 12.7188 1.90769 12.7726C1.84988 12.7994 1.71981 12.7323 1.90769 12.7726ZM1.90769 12.6651C1.90769 12.6114 1.90769 12.6114 1.90769 12.6651C1.92214 12.7323 1.31515 12.6114 1.90769 12.6651ZM2.25455 12.5577C2.15338 12.6248 2.12448 12.4099 2.19674 12.5577C2.18228 12.5979 2.269 12.4233 2.25455 12.5577ZM2.94825 12.8263C2.94825 12.7726 2.94825 12.7726 2.94825 12.8263C2.9338 12.9069 2.68811 12.7726 2.94825 12.8263ZM4.45128 13.7934C4.45128 13.7397 4.45128 13.7397 4.45128 13.7934C4.46573 13.8203 4.04662 13.7129 4.45128 13.7934ZM4.45128 17.5546C4.07552 17.3531 5.08718 15.674 4.85594 17.3396C4.82704 17.2993 4.5958 17.7023 4.45128 17.5546ZM4.97156 22.8739C5.07273 23.1694 4.22005 22.5649 4.68252 22.3366C4.72587 22.2694 5.31842 22.0813 4.97156 22.8739ZM5.2028 22.9276C5.2317 22.9813 5.36177 22.9947 5.14499 23.0888C5.07273 23.1156 4.8993 23.1828 5.2028 22.9276ZM5.08718 13.686C3.95991 14.0084 1.90769 12.9203 4.79814 12.9338C5.15944 13.377 4.79814 13.1084 5.08718 13.686ZM5.14499 12.3427C5.17389 12.4771 4.03217 12.3696 5.02937 12.0204C5.15944 12.0875 5.27506 11.9398 5.14499 12.3427ZM5.2028 10.6234C5.05828 10.6637 4.76923 11.0532 4.85594 11.4293C4.538 11.6174 3.30956 11.3622 5.02937 11.8054C3.74312 12.2487 2.42797 12.7457 2.13893 12.0741C1.12727 13.6726 3.51189 7.03687 3.64196 9.9786C2.86154 10.8383 6.28671 8.07118 5.2028 10.6234ZM5.66527 22.3903C5.60746 22.444 5.60746 22.444 5.66527 22.3903C5.69417 22.3634 5.62191 22.6186 5.66527 22.3903ZM5.49184 22.0679C5.40513 22.0142 5.75198 21.947 5.54965 22.1216C5.59301 22.1485 5.34732 22.0813 5.49184 22.0679ZM6.24336 21.2619C6.25781 21.2888 5.8965 21.2217 6.06993 21.1008C6.09883 21.0873 6.2289 21.1545 6.24336 21.2619ZM6.12774 15.0292C6.41678 16.2919 5.14499 17.8366 5.43403 15.2979C4.8704 14.4516 6.01212 15.1367 6.82145 14.0621C7.22611 13.8203 6.79254 15.1501 6.12774 15.0292ZM6.82145 14.9755C6.8359 15.0292 6.82144 15.0427 6.59021 15.0292C6.67692 15.0561 6.56131 14.9755 6.82145 14.9755ZM6.47459 16.6949C6.30117 16.7083 6.2289 16.5606 6.5324 16.6949H6.47459ZM7.68858 17.5008C7.68858 17.4471 7.68858 17.4471 7.68858 17.5008C7.67413 17.5949 7.39953 17.4874 7.68858 17.5008ZM11.4462 16.9635C11.3161 17.9844 8.88811 16.6411 7.05268 16.5874C6.38788 17.2053 6.21445 14.0621 7.45734 15.5128C6.79254 16.3994 8.20886 14.5322 8.26667 15.9427C8.19441 15.5397 10.0009 15.0964 8.84476 15.9964C8.87366 15.5934 10.7524 16.5471 9.65408 16.0501C9.23497 15.2173 9.58182 15.4188 9.94312 14.9755C10.1744 14.9486 11.0848 15.6203 11.4462 16.9635ZM14.0476 19.8112C14.0765 19.9053 13.9464 20.0127 14.0476 19.7575V19.8112ZM12.7758 24.1096C12.4 24.1365 12.7469 23.5455 12.7758 24.0022C12.7324 24.0022 12.9203 24.0156 12.7758 24.1096ZM12.8914 23.25C12.8625 23.1828 12.9492 23.3843 12.7758 23.4649C12.7324 23.747 12.8769 22.6455 12.8914 23.25ZM13.1804 22.2828C13.2382 22.1754 13.2382 22.1754 13.1804 22.2828C13.0793 22.3366 13.3538 21.7455 13.1804 22.2828ZM13.296 22.444C13.3249 22.4306 13.2527 22.5918 13.2382 22.444C13.1949 22.4574 13.455 22.2963 13.296 22.444ZM13.6429 21.2619C13.5273 21.356 13.5706 20.953 13.8163 21.1008C13.8019 21.1545 13.8597 21.1814 13.6429 21.2619ZM14.1054 26.8499C14.0186 26.9573 14.0331 26.8633 13.8163 26.9574C13.8597 27.0111 14.0331 26.6484 14.1054 26.8499ZM16.1287 3.10113C16.1431 3.47725 14.5534 3.28919 15.7818 2.99367C15.7385 3.11457 16.0853 2.76532 16.1287 3.10113ZM19.3082 24.3783C19.3082 24.3246 19.3082 24.3246 19.3082 24.3783C19.3804 24.4723 19.1347 24.3649 19.3082 24.3783ZM19.5972 21.2082C19.5683 21.3291 19.2214 21.2619 19.5394 21.2082C19.5249 21.2485 19.6117 21.0739 19.5972 21.2082ZM19.4816 20.2411C19.5249 20.2545 19.5828 20.2008 19.4816 20.3485C19.4238 20.3888 19.2648 20.4963 19.4816 20.2411ZM19.2503 21.4231C19.2648 21.3963 19.2503 21.4903 19.366 21.4769C19.3804 21.45 19.2359 21.544 19.2503 21.4231ZM18.3254 2.5101C18.3543 2.22802 18.8746 2.5907 18.5566 2.67129C18.6145 2.65786 18.4266 2.69816 18.3254 2.5101ZM17.9207 20.9933C18.311 20.7246 18.2531 20.7112 18.9035 20.6709C19.3371 21.1679 18.3832 21.6515 17.9207 20.9933ZM17.5161 22.3903C17.5016 22.3634 17.1259 22.1351 17.2848 22.0142C17.2848 22.1619 17.4149 22.1216 17.5161 22.3903ZM18.4988 22.2291C18.6723 23.1156 17.6606 23.5321 17.9786 22.0679C17.7762 21.8933 17.7473 23.1425 17.1692 21.4231C17.6028 21.0739 17.6895 22.444 17.7473 21.1008C18.0653 21.5037 18.6 21.2754 18.4988 22.2291ZM19.0769 22.3903C19.1492 22.5649 18.3832 22.0142 18.7301 21.7993C18.7156 21.7993 19.8718 22.3366 19.0769 22.3903Z" fill="#9FDDFF"/>
</svg>
